<svg xmlns="http://www.w3.org/2000/svg" fill="none" viewBox="0 0 128 128">
    <path d="m54 118 28 12 28-12v-16l-28 12-28-12v16Z" fill="#fff"/>
    <path d="m54 102 28 12 28-12v-16l-28 12-28-12v16Z" fill="#38bdf8"/>
    <path d="m54 86 28 12 28-12v-16l-28 12-28-12v16Z" fill="#a855f7"/>
    <path d="m54 70 28 12 28-12v-16l-28 12-28-12v16Z" fill="#f97316"/>
    <path d="m54 54 28 12 28-12v-16l-28 12-28-12v16Z" fill="#10b981"/>
    <path d="m54 38 28 12 28-12v-16l-28 12-28-12v16Z" fill="#ef4444"/>
    <path d="m54 22 28 12 28-12v-16l-28 12-28-12v16Z" fill="#6366f1"/>
</svg>